<?xml version="1.0" standalone="no"?>
<!DOCTYPE svg PUBLIC "-//W3C//DTD SVG 20010904//EN"
 "http://www.w3.org/TR/2001/REC-SVG-20010904/DTD/svg10.dtd">
<svg version="1.0" xmlns="http://www.w3.org/2000/svg"
 width="138.000000pt" height="138.000000pt" viewBox="0 0 138.000000 138.000000"
 preserveAspectRatio="xMidYMid meet">
<metadata>
Created by potrace 1.14, written by Peter Selinger 2001-2017
</metadata>
<g transform="translate(0.000000,138.000000) scale(0.100000,-0.100000)"
fill="#000000" stroke="none">
<path d="M0 711 c0 -368 3 -676 6 -685 6 -15 67 -16 685 -16 440 0 680 4 684
11 4 5 3 9 -2 8 -4 -1 -15 -1 -23 1 -11 1 -10 3 4 9 11 4 20 17 21 29 1 11 -2
19 -7 16 -10 -6 -11 10 -1 20 10 10 11 46 0 39 -5 -3 -6 4 -2 16 4 12 2 28 -5
36 -8 10 -8 15 1 21 8 5 10 3 4 -7 -5 -8 -4 -11 0 -6 13 11 16 45 5 52 -6 3
-7 -2 -4 -12 5 -15 4 -16 -5 -3 -8 11 -7 18 3 25 11 9 13 29 7 78 -1 5 -5 6
-10 2 -5 -3 -3 9 6 26 12 23 13 33 4 42 -9 9 -11 7 -6 -8 6 -16 5 -17 -4 -5
-8 11 -7 18 2 25 14 11 19 48 6 39 -5 -3 -9 0 -9 5 0 6 5 11 10 11 7 0 7 6 0
19 -5 11 -6 22 -2 25 10 6 9 126 -1 143 -4 6 -1 14 5 16 7 3 4 6 -7 6 -16 1
-17 3 -6 10 12 8 13 12 1 25 -11 14 -10 16 4 10 12 -5 15 -2 10 10 -3 9 -11
13 -18 10 -6 -3 -4 0 4 8 17 15 18 51 2 71 -9 10 -9 16 0 25 8 8 8 15 -2 27
-11 13 -10 14 4 9 12 -5 15 -2 10 10 -3 9 -11 13 -18 10 -6 -3 -4 0 4 8 8 7
15 29 16 50 0 29 -2 35 -15 30 -14 -5 -14 -3 -2 11 10 13 11 20 2 31 -9 11 -9
16 0 22 8 4 9 3 5 -4 -4 -7 -2 -12 4 -12 7 0 9 7 6 16 -3 9 -6 18 -6 20 0 3
-6 2 -12 -2 -8 -5 -7 -1 2 10 19 24 21 46 4 53 -11 4 -11 7 1 19 15 15 10 48
-6 38 -5 -3 -6 2 -3 10 3 9 10 13 15 10 5 -3 6 2 3 10 -3 9 -11 13 -16 10 -6
-4 -3 5 7 19 12 19 13 27 4 33 -7 4 -9 3 -5 -4 3 -6 3 -13 -2 -16 -4 -2 -8 6
-8 19 0 13 4 21 8 19 17 -10 7 26 -9 36 -17 11 -17 11 0 6 12 -4 17 -2 15 6
-4 10 -152 14 -686 16 l-681 2 -1 -669z m195 547 c-8 16 4 34 17 25 7 -3 31
-8 55 -10 33 -2 42 0 37 10 -6 8 -3 8 9 -1 9 -8 22 -10 29 -6 11 6 11 5 0 -8
-11 -14 -9 -15 25 -3 25 9 44 10 55 4 12 -6 18 -6 18 0 0 6 7 8 15 5 8 -4 13
-10 10 -14 -3 -5 4 -6 15 -3 11 3 20 10 20 15 0 5 5 6 10 3 6 -4 8 -12 4 -18
-3 -7 1 -4 9 5 8 10 17 15 21 11 4 -4 11 -1 16 7 8 13 10 12 10 -2 0 -10 -5
-18 -12 -18 -6 0 -8 -3 -5 -6 4 -4 14 -1 23 6 13 12 17 11 25 -1 7 -12 9 -12
9 2 0 16 26 19 48 5 7 -4 12 -2 12 6 1 9 4 9 13 -3 10 -13 17 -14 42 -3 32 13
59 8 48 -9 -3 -6 -1 -7 5 -3 7 4 12 15 12 24 0 15 2 15 10 2 9 -13 11 -13 21
0 8 12 9 9 4 -10 -6 -24 -5 -24 9 -6 15 18 16 18 16 2 0 -9 5 -14 10 -11 6 4
8 11 5 16 -7 10 24 1 42 -13 7 -6 14 -4 19 3 4 8 3 9 -4 5 -7 -4 -12 -2 -12 3
0 13 3 13 24 5 9 -3 13 -11 9 -17 -3 -6 4 -3 17 6 21 15 26 15 46 2 17 -11 25
-12 30 -3 4 6 3 8 -3 5 -5 -3 -10 0 -10 7 0 11 4 12 19 3 15 -10 21 -9 29 3 9
13 10 12 5 -2 -3 -10 -1 -20 4 -23 6 -4 10 0 10 8 0 15 27 16 50 2 23 -14 39
-14 34 0 -3 7 0 16 6 20 6 4 9 1 8 -7 -2 -7 3 -12 11 -10 23 5 51 -9 51 -24 0
-10 5 -12 12 -8 9 6 9 3 -1 -9 -7 -9 -11 -23 -8 -31 3 -7 0 -19 -6 -25 -8 -8
-8 -14 2 -23 10 -11 11 -9 6 7 -6 16 -5 17 4 5 8 -11 7 -18 -5 -27 -10 -7 -11
-13 -5 -18 6 -3 11 -11 11 -16 0 -6 -4 -8 -9 -4 -5 3 -13 0 -17 -6 -4 -7 -3
-9 3 -6 6 4 14 -1 17 -10 4 -9 2 -20 -5 -23 -8 -6 -8 -9 0 -14 6 -4 11 -12 11
-17 0 -6 -6 -7 -12 -3 -9 5 -9 2 1 -9 11 -14 11 -17 0 -17 -11 0 -11 -2 1 -10
13 -8 13 -10 0 -10 -11 0 -11 -3 -2 -12 16 -16 15 -31 0 -22 -9 5 -9 2 1 -9
11 -14 11 -17 0 -17 -11 0 -11 -2 1 -10 13 -8 13 -10 0 -10 -10 0 -11 -3 -2
-12 7 -7 8 -17 2 -29 -7 -12 -6 -20 2 -25 7 -5 8 -3 3 6 -6 9 -4 11 5 5 10 -6
10 -11 -3 -20 -9 -7 -14 -15 -10 -18 12 -12 11 -67 -1 -60 -6 4 -5 -1 3 -10 8
-11 9 -17 2 -17 -7 0 -8 -8 -1 -26 13 -33 13 -37 -2 -28 -9 5 -9 2 1 -9 8 -11
9 -17 2 -17 -7 0 -8 -8 -1 -26 13 -33 13 -37 -2 -28 -9 5 -9 2 1 -9 8 -11 9
-17 2 -17 -7 0 -8 -8 -1 -26 13 -33 13 -37 -2 -28 -9 5 -9 2 1 -9 8 -11 9 -17
2 -17 -7 0 -8 -8 -1 -26 13 -33 13 -37 -2 -28 -10 5 -10 4 -1 -6 10 -11 9 -16
-4 -25 -13 -10 -13 -14 -3 -20 9 -6 11 -4 5 6 -5 8 -4 11 0 6 11 -10 18 -50 7
-44 -9 7 -9 -74 1 -90 5 -8 3 -13 -3 -13 -6 0 -9 -4 -5 -9 3 -5 7 -29 9 -52 3
-27 1 -38 -4 -28 -8 12 -11 12 -22 0 -11 -12 -10 -13 2 -6 8 5 11 4 7 0 -9
-11 -39 -16 -33 -7 2 4 -11 7 -30 7 -19 0 -34 -4 -34 -10 0 -5 -5 -3 -10 5 -9
13 -10 13 -10 0 0 -13 -1 -13 -10 0 -8 12 -10 12 -11 -5 l0 -20 -9 20 c-6 14
-9 15 -10 5 -1 -10 -4 -9 -10 5 -7 17 -9 17 -9 3 -1 -15 -5 -16 -27 -8 -34 13
-47 13 -38 -2 5 -7 3 -8 -7 -2 -20 12 -89 12 -89 -1 0 -5 -5 -3 -10 5 -9 13
-10 13 -10 0 0 -13 -1 -13 -10 0 -9 13 -10 13 -10 0 0 -13 -1 -13 -10 0 -8 12
-10 12 -11 -5 -1 -17 -2 -16 -9 5 -5 16 -8 19 -9 8 -1 -15 -5 -16 -27 -8 -34
13 -47 13 -38 -2 5 -7 3 -8 -7 -2 -23 15 -83 11 -91 -6 -5 -12 -7 -12 -7 3 -1
9 -6 17 -12 17 -5 0 -8 -4 -5 -8 3 -5 -1 -9 -9 -9 -8 0 -12 3 -10 7 7 12 -67
1 -84 -12 -14 -11 -14 -11 -4 2 10 13 6 15 -33 15 -32 0 -44 -4 -44 -15 -1
-11 -4 -10 -12 5 -11 19 -11 19 -19 0 -7 -17 -8 -18 -8 -2 -1 9 -6 17 -12 17
-5 0 -8 -4 -5 -8 3 -5 -1 -9 -9 -9 -8 0 -12 3 -11 6 2 3 -7 6 -20 6 -13 0 -24
-4 -24 -8 0 -5 -5 -5 -12 -1 -21 13 -108 10 -108 -3 0 -7 -5 -13 -11 -13 -5 0
-8 4 -4 9 3 5 1 12 -5 16 -5 3 -10 0 -10 -7 0 -9 -3 -9 -10 2 -8 12 -10 12
-10 1 0 -8 -9 -2 -21 13 -18 23 -23 25 -38 14 -14 -12 -15 -11 -2 4 7 10 11
27 8 38 -3 11 1 27 10 35 14 14 7 20 -20 16 -12 -2 -8 6 10 20 14 12 16 12 8
0 -5 -9 -4 -12 3 -7 6 4 9 13 5 22 -4 12 -8 12 -22 2 -14 -11 -14 -11 -4 3 7
9 9 19 5 23 -4 4 -2 7 3 6 24 -5 27 1 9 16 -12 10 -13 14 -4 11 10 -3 15 3 16
19 1 13 -2 24 -7 24 -13 0 -11 44 4 59 7 9 7 11 1 8 -19 -11 -24 19 -6 44 14
21 14 22 -1 16 -22 -8 -22 2 0 20 17 14 17 14 -1 9 -14 -5 -16 -3 -9 6 16 21
22 57 11 65 -6 3 -8 1 -4 -5 3 -6 3 -13 -2 -16 -16 -9 -9 29 7 42 14 12 14 13
1 9 -12 -4 -16 3 -15 23 0 20 4 26 15 22 11 -4 9 2 -5 18 -15 18 -16 22 -4 18
11 -5 15 0 13 15 -1 12 -3 26 -3 30 -1 5 -5 6 -9 3 -5 -3 -9 1 -9 9 0 8 4 12
9 9 13 -8 10 10 -4 25 -11 11 -10 13 3 8 10 -3 15 1 14 12 -2 25 -15 42 -28
35 -7 -4 -1 5 13 21 16 19 20 26 9 22 -12 -4 -16 0 -15 16 1 12 -2 25 -7 28
-5 3 -1 9 8 12 11 5 14 3 9 -6 -4 -6 -3 -8 1 -4 14 13 15 39 1 34 -15 -6 -16
46 -2 60 5 5 6 2 1 -7 -5 -8 -4 -12 0 -7 12 11 13 47 2 54 -6 3 -7 1 -3 -5 3
-6 3 -13 -2 -16 -4 -2 -9 4 -9 15 -1 12 5 19 15 19 14 0 15 2 3 9 -21 14 -23
41 -3 34 13 -3 13 -1 -2 11 -13 10 -15 16 -7 16 11 0 11 3 0 17 -12 15 -12 16
5 10 17 -7 17 -6 5 9 -11 13 -11 18 -1 21 6 3 12 9 12 14 0 6 -5 7 -12 3 -6
-4 -8 -3 -5 4 4 5 19 9 33 7 19 -2 24 1 19 14 -3 9 4 5 16 -9 11 -14 18 -19
14 -12z m510 22 c3 -5 1 -10 -4 -10 -6 0 -11 5 -11 10 0 6 2 10 4 10 3 0 8 -4
11 -10z m662 -305 c0 -8 -4 -12 -9 -9 -5 3 -6 10 -3 15 9 13 12 11 12 -6z
m-1252 -225 c-3 -5 -12 -10 -18 -10 -7 0 -6 4 3 10 19 12 23 12 15 0z m1255
-150 c0 -5 -2 -10 -4 -10 -3 0 -8 5 -11 10 -3 6 -1 10 4 10 6 0 11 -4 11 -10z
m-2 -45 c-3 -3 -9 2 -12 12 -6 14 -5 15 5 6 7 -7 10 -15 7 -18z m-1 -260 c0
-8 -4 -12 -9 -9 -5 3 -6 10 -3 15 9 13 12 11 12 -6z m-102 -24 c3 -5 2 -12 -3
-15 -5 -3 -9 1 -9 9 0 17 3 19 12 6z m-91 -149 c3 -5 -1 -9 -9 -9 -8 0 -12 4
-9 9 3 4 7 8 9 8 2 0 6 -4 9 -8z"/>
<path d="M207 1269 c12 -15 46 -19 58 -7 3 3 -5 5 -17 4 -13 -1 -30 3 -38 8
-13 9 -13 8 -3 -5z"/>
<path d="M110 1019 c0 -5 5 -7 10 -4 6 3 10 8 10 11 0 2 -4 4 -10 4 -5 0 -10
-5 -10 -11z"/>
<path d="M376 1014 c-12 -32 -7 -104 8 -104 8 0 17 -6 19 -12 4 -10 6 -10 6 0
1 6 11 12 24 12 13 0 29 6 36 13 8 7 11 7 8 1 -4 -7 3 -11 18 -11 14 0 23 3
20 7 -2 3 2 7 10 7 8 0 12 -4 10 -8 -3 -4 2 -10 11 -13 10 -4 13 -2 8 6 -5 7
-2 9 8 5 9 -3 21 0 28 6 10 9 11 9 5 -2 -6 -10 -4 -13 6 -9 9 4 19 -4 26 -18
9 -20 8 -24 -5 -25 -14 0 -13 -2 3 -9 11 -5 15 -9 9 -9 -12 -1 -12 -30 0 -49
4 -6 3 -12 -2 -12 -10 0 -9 -30 2 -48 4 -6 3 -12 -2 -12 -10 0 -9 -30 2 -48 4
-6 3 -12 -2 -12 -10 0 -9 -36 0 -46 4 -3 3 -16 -2 -29 -5 -14 -5 -26 3 -34 7
-7 7 -11 0 -11 -11 0 -10 -41 3 -61 4 -8 3 -9 -4 -5 -7 4 -12 3 -12 -3 0 -5 6
-12 13 -14 9 -4 9 -6 -1 -6 -10 -1 -10 -6 -1 -22 8 -15 8 -19 0 -15 -6 4 -11
2 -11 -3 0 -6 5 -11 12 -11 6 0 3 -7 -8 -16 -13 -11 -15 -17 -6 -20 6 -3 12
-13 13 -22 0 -11 2 -13 6 -4 3 7 -1 20 -9 30 -12 15 -11 16 5 3 9 -7 18 -23
18 -35 1 -18 2 -18 6 -3 5 18 6 18 24 1 18 -16 19 -17 13 -1 -5 15 -3 16 20 7
20 -7 25 -7 20 2 -5 8 -2 9 9 5 9 -3 19 -1 23 5 4 7 3 8 -4 4 -8 -5 -11 2 -8
23 2 23 0 28 -12 24 -10 -4 -13 -1 -10 8 3 8 12 13 19 11 9 -1 8 3 -3 11 -10
8 -15 16 -12 19 3 3 7 20 9 37 3 23 1 30 -8 24 -7 -4 -4 5 6 20 13 20 14 25 3
21 -18 -7 -16 17 3 40 12 14 12 16 0 11 -10 -4 -15 2 -16 15 -1 11 3 20 8 20
6 0 7 -5 3 -12 -4 -7 -3 -8 4 -4 15 9 3 38 -12 29 -6 -3 -2 4 8 16 16 17 16
20 4 16 -9 -4 -19 -1 -24 6 -4 8 -3 10 4 5 7 -4 12 -2 12 4 0 6 6 8 13 4 6 -4
4 1 -5 12 -16 18 -16 22 -2 36 12 12 13 17 3 23 -8 5 -10 4 -5 -3 4 -7 3 -12
-3 -12 -5 0 -9 9 -8 19 0 11 5 17 9 15 4 -3 8 2 8 10 0 9 -5 16 -12 16 -6 0
-3 7 8 15 18 14 18 15 0 8 -14 -4 -17 -2 -14 8 3 8 12 13 19 11 11 -3 12 -1 2
9 -7 7 -13 18 -13 23 0 6 5 4 10 -4 8 -13 10 -12 10 3 0 10 4 16 9 13 5 -4 12
0 14 6 3 8 6 6 6 -5 1 -10 6 -15 11 -12 6 4 7 12 3 18 -5 9 -3 9 8 1 24 -18
48 -24 55 -12 5 7 2 8 -6 3 -9 -6 -11 -4 -6 4 6 9 13 8 29 -6 11 -10 17 -13
14 -6 -4 6 -3 14 3 18 5 3 10 1 10 -6 0 -8 5 -7 17 2 9 8 14 9 11 4 -4 -6 9
-15 27 -21 19 -6 34 -8 33 -5 0 3 0 8 2 11 8 23 8 55 -1 72 -8 15 -8 19 0 14
6 -4 11 -3 11 2 0 13 -46 21 -62 11 -7 -4 -18 -3 -24 2 -9 7 -16 5 -23 -8 -7
-12 -10 -13 -11 -4 0 10 -3 11 -14 2 -10 -9 -16 -7 -27 5 -12 14 -14 14 -26
-2 -7 -10 -13 -13 -13 -7 0 16 -28 24 -36 11 -5 -7 -2 -8 6 -3 8 5 11 4 6 -3
-9 -14 -38 -3 -30 12 3 6 -2 2 -10 -8 -11 -14 -16 -15 -16 -6 0 10 -3 11 -11
3 -14 -14 -51 -5 -43 11 3 6 -2 2 -10 -8 -9 -11 -16 -14 -16 -8 0 7 -5 12 -11
12 -5 0 -7 -5 -3 -12 5 -7 3 -8 -6 -3 -19 12 -123 15 -136 4 -8 -7 -15 -6 -20
2 -5 8 -3 9 6 4 9 -6 11 -4 5 5 -6 10 -11 9 -22 -5 -7 -11 -13 -14 -13 -7 0 6
-7 9 -17 5 -10 -4 -14 -2 -10 4 8 12 -11 12 -30 0 -9 -6 -11 -3 -7 7 3 9 4 16
1 16 -3 0 -8 -7 -11 -16z m369 -634 c-3 -5 -12 -10 -18 -10 -7 0 -6 4 3 10 19
12 23 12 15 0z"/>
<path d="M110 939 c0 -5 5 -7 10 -4 6 3 10 8 10 11 0 2 -4 4 -10 4 -5 0 -10
-5 -10 -11z"/>
<path d="M115 221 c-3 -5 -2 -12 3 -15 5 -3 9 1 9 9 0 17 -3 19 -12 6z"/>
</g>
</svg>
