<svg aria-hidden="true" style="position:absolute;width:0;height:0" width="44" height="36" xmlns="http://www.w3.org/2000/svg" overflow="hidden"><defs><symbol id="checkedtruck" viewBox="0 0 44 36"><path d="M2.063 0a2.074 2.074 0 0 0-.688 4.027v19.641A2.069 2.069 0 0 0 0 25.615v4.154c0 1.144.927 2.077 2.063 2.077h3.49C5.89 34.191 7.894 36 10.314 36s4.423-1.81 4.758-4.154h15.233C30.639 34.191 32.643 36 35.063 36c2.42 0 4.423-1.81 4.758-4.154h2.117A2.074 2.074 0 0 0 44 29.77v-4.154c0-.911-.588-1.676-1.4-1.957.009-.038.025-.076.025-.12v-2.647c0-.665-.188-1.314-.548-1.874l-4.939-7.734a3.412 3.412 0 0 0-2.89-1.59H33V8.307a.691.691 0 0 0-.688-.693.691.691 0 0 0-.687.693v1.384h-2.75V4.027A2.075 2.075 0 0 0 28.187 0H2.063Zm0 1.385h26.125c.378 0 .687.31.687.692a.691.691 0 0 1-.688.692H2.063a.691.691 0 0 1-.687-.692c0-.381.309-.692.688-.692Zm.687 2.769H27.5v19.385H2.75V4.153Zm12.375 1.384c-4.55 0-8.25 3.727-8.25 8.308 0 4.581 3.7 8.308 8.25 8.308s8.25-3.727 8.25-8.308c0-4.581-3.7-8.308-8.25-8.308Zm0 1.385c3.792 0 6.875 3.105 6.875 6.923 0 3.819-3.083 6.923-6.875 6.923S8.25 17.665 8.25 13.846c0-3.818 3.083-6.923 6.875-6.923Zm13.75 4.154h5.374c.703 0 1.353.357 1.735.952l4.938 7.737c.215.338.328.727.328 1.125v2.648H28.875V11.076Zm-10.313.038a.685.685 0 0 0-.486.203l-4.326 4.356-1.576-1.587a.684.684 0 0 0-.973 0 .696.696 0 0 0 0 .979l2.063 2.077a.68.68 0 0 0 .972 0l4.813-4.846a.696.696 0 0 0 0-.98.685.685 0 0 0-.486-.202Zm13.063 1.346c-.757 0-1.375.623-1.375 1.385V18c0 .763.618 1.385 1.375 1.385h4.947c.5 0 .961-.274 1.203-.714a1.39 1.39 0 0 0-.038-1.404l-2.578-4.156a1.369 1.369 0 0 0-1.165-.65h-2.369Zm0 1.385h2.369L36.577 18h-4.952v-4.154Zm-.688 6.923a.691.691 0 0 0-.687.693c0 .38.309.692.688.692h1.375a.691.691 0 0 0 .687-.692.691.691 0 0 0-.688-.693h-1.374ZM2.063 24.923h39.876c.378 0 .687.311.687.692v4.154a.691.691 0 0 1-.688.693h-2.116c-.335-2.345-2.339-4.154-4.758-4.154-2.42 0-4.424 1.809-4.76 4.154H15.072c-.335-2.345-2.339-4.154-4.758-4.154-2.42 0-4.424 1.809-4.76 4.154h-3.49a.691.691 0 0 1-.688-.693v-.692a.691.691 0 0 0 .688-.692V27a.691.691 0 0 0-.688-.692v-.693c0-.38.309-.692.688-.692Zm2.75 1.385a.691.691 0 0 0-.687.692v1.385c0 .38.309.692.688.692a.691.691 0 0 0 .687-.692V27a.691.691 0 0 0-.688-.692Zm11 0a.691.691 0 0 0-.687.692v1.385c0 .38.309.692.688.692a.691.691 0 0 0 .687-.692V27a.691.691 0 0 0-.688-.692Zm3.438 0a.691.691 0 0 0-.688.692v1.385c0 .38.31.692.688.692a.691.691 0 0 0 .688-.692V27a.691.691 0 0 0-.688-.692Zm3.438 0A.691.691 0 0 0 22 27v1.385c0 .38.309.692.688.692a.691.691 0 0 0 .687-.692V27a.691.691 0 0 0-.688-.692Zm3.437 0a.691.691 0 0 0-.688.692v1.385c0 .38.31.692.688.692a.691.691 0 0 0 .688-.692V27a.691.691 0 0 0-.688-.692Zm3.438 0a.691.691 0 0 0-.688.692v1.385c0 .38.309.692.688.692a.691.691 0 0 0 .687-.692V27a.691.691 0 0 0-.688-.692Zm11 0a.691.691 0 0 0-.688.692v1.385c0 .38.309.692.688.692a.691.691 0 0 0 .687-.692V27a.691.691 0 0 0-.688-.692Zm-30.25 1.384c1.896 0 3.437 1.553 3.437 3.462 0 1.91-1.541 3.461-3.438 3.461-1.896 0-3.437-1.552-3.437-3.461 0-1.91 1.541-3.462 3.438-3.462Zm24.75 0c1.895 0 3.437 1.553 3.437 3.462 0 1.91-1.541 3.461-3.438 3.461-1.895 0-3.437-1.552-3.437-3.461 0-1.91 1.541-3.462 3.438-3.462Zm-24.75 2.077c-.76 0-1.376.62-1.376 1.385a1.38 1.38 0 0 0 1.376 1.384c.76 0 1.374-.619 1.374-1.384 0-.765-.614-1.385-1.374-1.385Zm24.75 0c-.76 0-1.376.62-1.376 1.385a1.38 1.38 0 0 0 1.376 1.384c.76 0 1.374-.619 1.374-1.384 0-.765-.614-1.385-1.374-1.385Z" fill="currentcolor"/></symbol><symbol id="guarantee" viewBox="0 0 44 36"><path fill-rule="evenodd" clip-rule="evenodd" d="m5.89 24.567 2.28 1.407.798.696 1.984.775 2.412-.775h1.697l1.106.775 2.35-.775 1.234-1.161 2.514-.942 4.311 10.747h-6.114l-3.822 3.98-3.095-7.363-3.16 7.364-3.53-3.98H.7l5.19-10.748Z" fill="currentcolor"/><path d="M11.46.003c-1.156.034-2.273.622-2.91 1.65l-.225.365a1.809 1.809 0 0 1-1.506.85h-.002l-.436.01c-1.873.038-3.4 1.527-3.437 3.358l-.01.426a1.753 1.753 0 0 1-.87 1.471l-.373.222C.088 9.303-.472 11.339.43 12.943h.002l.21.375c.299.53.299 1.169 0 1.699l-.21.373c-.903 1.603-.344 3.64 1.26 4.588l.373.22c.53.313.857.866.87 1.471v.002l.01.426c.031 1.48 1.041 2.724 2.415 3.17L.93 34.65a.817.817 0 0 0 .056.799c.157.24.428.384.72.384h5.56l3.156 3.854a.863.863 0 0 0 1.448-.187l2.657-5.933 2.658 5.933a.863.863 0 0 0 1.448.187l3.155-3.854h5.562a.858.858 0 0 0 .719-.384.817.817 0 0 0 .055-.8l-4.438-9.396c1.35-.459 2.34-1.692 2.37-3.156v-.002l.01-.424v-.002c.014-.605.341-1.159.87-1.471l.375-.222c1.603-.948 2.161-2.982 1.258-4.586l-.001-.002-.214-.376a1.723 1.723 0 0 1 .002-1.696l.212-.373v-.002c.902-1.603.344-3.638-1.258-4.586l-.002-.002-.373-.22a1.752 1.752 0 0 1-.87-1.471V6.66l-.01-.424v-.002c-.039-1.83-1.564-3.32-3.437-3.358l-.437-.01a1.81 1.81 0 0 1-1.506-.85l-.226-.364C19.478.085 17.393-.46 15.75.422v.001l-.383.205a1.837 1.837 0 0 1-1.74 0l-.381-.205a3.535 3.535 0 0 0-1.786-.42Zm-.043 1.662a1.85 1.85 0 0 1 1.008.218l.38.205a3.587 3.587 0 0 0 3.387 0l.382-.207v.002a1.816 1.816 0 0 1 2.414.632l.227.364a3.53 3.53 0 0 0 2.929 1.654l.438.01c.977.02 1.748.77 1.768 1.725v.002l.008.426a3.42 3.42 0 0 0 1.693 2.863l.373.222c.835.493 1.118 1.52.648 2.356l-.211.375a3.36 3.36 0 0 0 0 3.307l.001.002v.002l.212.369c.47.836.187 1.865-.648 2.358l-.373.222a3.417 3.417 0 0 0-1.693 2.863l-.009.426v.002c-.02.954-.79 1.706-1.767 1.725l-.439.01a3.53 3.53 0 0 0-2.928 1.652v.002l-.227.364a1.817 1.817 0 0 1-2.414.632v.002l-.382-.207a3.587 3.587 0 0 0-3.387 0l-.382.207v-.002a1.817 1.817 0 0 1-2.414-.632l-.226-.364a3.53 3.53 0 0 0-2.93-1.654l-.437-.01c-.977-.02-1.748-.77-1.768-1.725v-.002l-.009-.426a3.42 3.42 0 0 0-1.692-2.863l-.373-.222c-.836-.494-1.12-1.522-.649-2.358l.21-.371v-.002c.58-1.028.58-2.28 0-3.307l-.211-.373h.001c-.47-.836-.188-1.865.647-2.358l.373-.222A3.419 3.419 0 0 0 4.64 6.698v-.002l.01-.426c.02-.955.789-1.708 1.766-1.727h.002l.436-.008a3.531 3.531 0 0 0 2.93-1.654l.227-.365a1.795 1.795 0 0 1 1.407-.851Zm9.296 6.739-7.03 10.734-5.65-4.968-1.142 1.24 7.146 6.282 8.112-12.39-1.436-.898Zm1.21 17.098 4.091 8.664h-4.637a.86.86 0 0 0-.666.313l-2.53 3.09-2.723-6.084 1.436-3.206c1.371.21 2.8-.38 3.555-1.6l.227-.365a1.792 1.792 0 0 1 1.246-.812Zm-14.796.007c.494.095.933.377 1.198.805l.227.365c.97 1.566 3.055 2.113 4.697 1.23v-.001l.383-.205a1.832 1.832 0 0 1 1.67-.026l-4.43 9.891-2.53-3.09a.86.86 0 0 0-.667-.312H3.04l4.088-8.657Z" fill="currentcolor"/></symbol><symbol id="time_management" viewBox="0 0 44 36"><path fill-rule="evenodd" clip-rule="evenodd" d="m2.495 2.455.911 2.587.981 2.87 2.2 1.07 1.339 1.338v1.93l-2.339 1.228-2.18 3.708 3.18-1.841 2.495-.737 2.696.725 2.28.819h2.213l-3.184-2.675-1.31-1.228V9.821l1.31-.838 1.768-1.757 1.416-2.184.67-1.973 1.2-1.228-15.646.614Z" fill="currentcolor"/><path d="M1.537 0C.69 0 0 .689 0 1.534 0 2.38.69 3.07 1.537 3.07h.523l1.508 3.387A6.717 6.717 0 0 0 6.27 9.503l1.11.665v1.76l-1.11.665a6.721 6.721 0 0 0-2.7 3.048l-1.51 3.387h-.522C.69 19.028 0 19.715 0 20.562s.689 1.534 1.537 1.534H7.81c.012.056.031.11.043.166.523 1.958 1.624 3.395 2.787 3.708C12.557 32.01 17.427 38 23.213 38 29 38 33.87 32.01 35.788 25.97c1.162-.313 2.264-1.75 2.792-3.708.677-2.517.105-4.695-1.322-5.082a1.685 1.685 0 0 0-.964.045c-.032-1.448-.238-2.682-.626-3.734-.153-.414-.108-.56-.112-.56.176-.137 1.077-.016 1.935.339a.612.612 0 0 0 .836-.698C36.771 5.468 31.492 1.228 24.204 1.228h-.99c-1.035 0-2.307.167-3.554.483.006-.06.017-.116.017-.177C19.677.69 18.987 0 18.14 0H1.537Zm0 1.228H18.14a.307.307 0 1 1 0 .613H1.537a.307.307 0 1 1 0-.613Zm21.677 1.227h.99c6.398 0 10.957 3.381 12.657 9.323-.742-.173-1.635-.232-2.155.266-.433.415-.497 1.044-.191 1.872.48 1.3.646 2.943.512 5.028a.614.614 0 0 0 .614.653.613.613 0 0 0 .613-.574c.01-.152.014-.298.02-.446.035-.014.072-.02.105-.04.16-.105.387-.215.56-.172.54.148.984 1.608.455 3.578-.252.94-.634 1.651-1.021 2.136-.387.485-.781.73-1.058.73a.62.62 0 0 0-.59.437c-1.703 5.733-6.205 11.526-11.512 11.526-5.306 0-9.808-5.793-11.511-11.526a.62.62 0 0 0-.59-.436c-.535 0-1.52-.94-2.03-2.713h9.058c.849 0 1.537-.688 1.537-1.535s-.688-1.534-1.537-1.534h-.522l-1.509-3.388a6.718 6.718 0 0 0-2.7-3.048l-1.11-.664v-1.76l1.11-.665a6.72 6.72 0 0 0 2.7-3.047l1.111-2.494c1.51-.873 3.969-1.507 5.995-1.507ZM3.407 3.07h12.867l-1.288 2.89a5.5 5.5 0 0 1-2.208 2.493l-1.11.664c-.37.22-.598.623-.598 1.052v1.76c0 .429.228.832.596 1.053l1.11.665a5.506 5.506 0 0 1 1.762 1.687l-1.412-.565c-2.382-.868-4.35-.866-6.589.007l-1.396.557a5.506 5.506 0 0 1 1.762-1.687l1.11-.664c.368-.221.597-.624.597-1.053v-1.76c0-.43-.229-.833-.597-1.053l-1.11-.665a5.503 5.503 0 0 1-2.21-2.493L3.406 3.069Zm19.687.616a.613.613 0 0 0-.564.66l.096 1.186a.614.614 0 1 0 1.225-.097l-.095-1.187a.615.615 0 0 0-.662-.562Zm3.452.164a.614.614 0 0 0-.706.507l-.192 1.173a.613.613 0 0 0 .607.713.615.615 0 0 0 .606-.515l.192-1.173a.613.613 0 0 0-.507-.705Zm3.058 1.07a.616.616 0 0 0-.57.371l-.466 1.08a.612.612 0 0 0 .565.856.615.615 0 0 0 .564-.37l.466-1.079a.613.613 0 0 0-.56-.858Zm2.706 1.929a.612.612 0 0 0-.409.232l-.708.912a.613.613 0 0 0 .485.99.616.616 0 0 0 .486-.238l.708-.91a.613.613 0 0 0-.562-.986ZM17.58 9.602a1.54 1.54 0 0 0-1.146.684l-1.479 2.24a.613.613 0 0 0 .513.951c.2 0 .396-.096.514-.276l1.479-2.239a.308.308 0 0 1 .391-.107l1.443.702c2.623 1.275 5.395 1.921 8.241 1.921a.615.615 0 1 0 0-1.229c-2.657 0-5.249-.603-7.702-1.796l-1.443-.702a1.53 1.53 0 0 0-.811-.149ZM30 12.25a.615.615 0 1 0 0 1.228h1.848a.615.615 0 1 0 0-1.228H30ZM9.786 15.345c.92 0 1.856.19 2.898.57l2.672 1.067h.004l.91 2.046H3.406l.91-2.044 2.672-1.067c.977-.381 1.88-.572 2.8-.572Zm19.73 3.069a1.229 1.229 0 1 0 1.23 1.227c0-.678-.552-1.227-1.23-1.227Zm-27.98 1.841H18.14c.172 0 .308.135.308.307a.304.304 0 0 1-.308.307H1.537a.304.304 0 0 1-.307-.307c0-.172.135-.307.307-.307Z" fill="currentcolor"/></symbol><symbol id="arrowdown" viewBox="0 0 44 36"><path d="M16 0C7.177 0 0 7.177 0 16s7.177 16 16 16c8.82 0 16-7.177 16-16S24.82 0 16 0Zm6.016 19.155-5.565 5.565a.697.697 0 0 1-.492.204.697.697 0 0 1-.492-.204l-5.565-5.565a.695.695 0 1 1 .984-.984l4.378 4.378V7.533c0-.384.312-.696.695-.696.383 0 .696.312.696.696v15.016l4.378-4.378a.695.695 0 1 1 .983.984Z" fill="currentcolor"/></symbol><symbol id="Group6" viewBox="0 0 44 36"><circle cx="11.5" cy="11.5" r="11.5" fill="currentcolor"/><path d="M5.389 16.614 16.673 5 18 6.366 6.716 17.98 5.39 16.614Z" fill="currentcolor"/><path d="m6.327 5.02 11.284 11.614L16.284 18 5 6.386 6.327 5.02Z" fill="currentcolor"/></symbol></defs></svg>